<?xml version="1.0" encoding="utf-8"?>
<!-- Generator: Adobe Illustrator 22.0.1, SVG Export Plug-In . SVG Version: 6.00 Build 0)  -->
<svg version="1.1" id="Layer_3" xmlns="http://www.w3.org/2000/svg" xmlns:xlink="http://www.w3.org/1999/xlink" x="0px" y="0px"
	 viewBox="0 0 64 64" style="enable-background:new 0 0 64 64;" xml:space="preserve">
<style type="text/css">
	.st0{fill:#FAF5F5;}
	.st1{fill:#63312D;}
	.st2{fill:#F9A287;}
	.st3{fill:#FCB7A4;}
	.st4{fill:#DB785A;}
	.st5{fill:#E0E0E0;}
	.st6{fill:#84DBFF;}
	.st7{fill:#EFC36A;}
	.st8{fill:#F9DD9D;}
	.st9{fill:#EEC26A;}
	.st10{fill:#A9EBFF;}
	.st11{fill:#52BADB;}
	.st12{fill:#FFFFFF;}
	.st13{fill:#F0EEEE;}
	.st14{fill:#BDBDBD;}
	.st15{fill:#E3DFDF;}
	.st16{fill:#FFE8BB;}
	.st17{fill:#FFF2D2;}
	.st18{fill:#D8C18F;}
	.st19{fill:#EAD194;}
	.st20{fill:#BFA064;}
	.st21{fill:#CCCCCC;}
	.st22{fill:#C5F1FF;}
	.st23{fill:#D3A553;}
	.st24{fill:#67C7E5;}
</style>
<g>
	<path class="st0" d="M3.083,32.187c0-3.545,2.703-6.458,6.161-6.792c-0.625-1.031-0.992-2.236-0.992-3.53
		c0-3.77,3.056-6.826,6.826-6.826c0.058,0,0.113,0.007,0.171,0.009c-0.109-0.483-0.171-0.984-0.171-1.5
		c0-3.77,3.056-6.826,6.826-6.826c3.77,0,6.826,3.056,6.826,6.826v36.905c0,3.77-3.056,6.826-6.826,6.826
		c-3.77,0-6.826-3.056-6.826-6.826c0-0.516,0.062-1.017,0.171-1.5c-0.057,0.001-0.113,0.009-0.171,0.009
		c-3.77,0-6.826-3.056-6.826-6.826c0-1.151,0.288-2.233,0.79-3.184C5.683,38.525,3.083,35.662,3.083,32.187z"/>
	<path class="st0" d="M3.083,32.187c0-3.545,2.703-6.458,6.161-6.792c-0.625-1.031-0.992-2.236-0.992-3.53
		c0-3.77,3.056-6.826,6.826-6.826c0.058,0,0.113,0.007,0.171,0.009c-0.109-0.483-0.171-0.984-0.171-1.5
		c0-3.77,3.056-6.826,6.826-6.826c3.77,0,6.826,3.056,6.826,6.826v36.905c0,3.77-3.056,6.826-6.826,6.826
		c-3.77,0-6.826-3.056-6.826-6.826c0-0.516,0.062-1.017,0.171-1.5c-0.057,0.001-0.113,0.009-0.171,0.009
		c-3.77,0-6.826-3.056-6.826-6.826c0-1.151,0.288-2.233,0.79-3.184C5.683,38.525,3.083,35.662,3.083,32.187z"/>
	<path class="st1" d="M21.904,20.873c-4.04,0-7.326-3.286-7.326-7.326h1c0,3.488,2.838,6.326,6.326,6.326V20.873z"/>
	<path class="st1" d="M15.078,29.19c-4.04,0-7.326-3.286-7.326-7.326h1c0,3.488,2.838,6.326,6.326,6.326V29.19z"/>
	<path class="st1" d="M15.578,50.453h-1c0-4.04,3.286-7.326,7.326-7.326v1C18.416,44.127,15.578,46.965,15.578,50.453z"/>
	<path class="st1" d="M8.752,42.135h-1c0-4.039,3.286-7.325,7.326-7.325v1C11.59,35.81,8.752,38.647,8.752,42.135z"/>
	<path class="st1" d="M21.904,57.778c-4.04,0-7.326-3.286-7.326-7.325c0-0.331,0.024-0.667,0.072-1.004
		c-3.841-0.223-6.897-3.418-6.897-7.313c0-0.96,0.192-1.917,0.56-2.804c-3.31-0.736-5.729-3.696-5.729-7.145
		c0-3.542,2.481-6.511,5.882-7.183c-0.468-0.981-0.713-2.054-0.713-3.139c0-3.896,3.057-7.091,6.897-7.313
		c-0.048-0.337-0.072-0.673-0.072-1.004c0-4.039,3.286-7.325,7.326-7.325c4.039,0,7.325,3.286,7.325,7.325v36.905
		C29.229,54.492,25.943,57.778,21.904,57.778z M15.092,48.461c0.154,0,0.37,0.063,0.465,0.178c0.098,0.119,0.214,0.272,0.18,0.423
		c-0.105,0.467-0.159,0.936-0.159,1.391c0,3.488,2.838,6.325,6.326,6.325s6.325-2.837,6.325-6.325V13.547
		c0-3.488-2.837-6.325-6.325-6.325s-6.326,2.837-6.326,6.325c0,0.455,0.053,0.923,0.159,1.391c0.034,0.15-0.003,0.308-0.102,0.427
		c-0.098,0.12-0.249,0.182-0.399,0.183l-0.145-0.465l-0.014,0.003v0.453c-3.488,0-6.326,2.838-6.326,6.326
		c0,1.148,0.318,2.279,0.919,3.271c0.089,0.147,0.096,0.33,0.019,0.483c-0.077,0.154-0.228,0.257-0.398,0.273
		c-3.255,0.315-5.709,3.021-5.709,6.294c0,3.174,2.374,5.869,5.522,6.269c0.163,0.021,0.305,0.12,0.381,0.266
		s0.075,0.319-0.002,0.464c-0.486,0.919-0.732,1.912-0.732,2.95c0,3.488,2.838,6.326,6.326,6.326
		C15.083,48.461,15.087,48.461,15.092,48.461z"/>
	<path class="st2" d="M54.375,32.187c0-3.545-2.703-6.458-6.161-6.792c0.625-1.031,0.992-2.236,0.992-3.53
		c0-3.77-3.056-6.826-6.826-6.826c-0.058,0-0.113,0.007-0.171,0.009c0.109-0.483,0.171-0.984,0.171-1.5
		c0-3.77-3.056-6.826-6.826-6.826c-3.77,0-6.826,3.056-6.826,6.826v36.905c0,3.77,3.056,6.826,6.826,6.826
		c3.77,0,6.826-3.056,6.826-6.826c0-0.516-0.062-1.017-0.171-1.5c0.057,0.001,0.113,0.009,0.171,0.009
		c3.77,0,6.826-3.056,6.826-6.826c0-1.151-0.288-2.233-0.79-3.184C51.775,38.525,54.375,35.662,54.375,32.187z"/>
	<g>
		<path class="st3" d="M30.248,51.223V14.318c0-3.77,3.056-6.826,6.826-6.826c0.817,0,1.597,0.151,2.324,0.415
			c-1.095-0.747-2.417-1.185-3.842-1.185c-3.77,0-6.826,3.056-6.826,6.826v36.905c0,2.952,1.878,5.459,4.502,6.411
			C31.43,55.635,30.248,53.567,30.248,51.223z"/>
	</g>
	<path class="st1" d="M35.555,57.778c-4.04,0-7.326-3.286-7.326-7.325V13.547c0-4.039,3.286-7.325,7.326-7.325
		s7.326,3.286,7.326,7.325c0,0.33-0.024,0.666-0.072,1.004c3.841,0.223,6.897,3.418,6.897,7.313c0,1.086-0.245,2.158-0.713,3.139
		c3.401,0.672,5.882,3.641,5.882,7.183c0,3.449-2.419,6.409-5.729,7.145c0.367,0.887,0.56,1.844,0.56,2.804
		c0,3.896-3.057,7.091-6.897,7.313c0.048,0.338,0.072,0.674,0.072,1.004C42.88,54.492,39.594,57.778,35.555,57.778z M35.555,7.222
		c-3.488,0-6.326,2.837-6.326,6.325v36.905c0,3.488,2.838,6.325,6.326,6.325s6.326-2.837,6.326-6.325
		c0-0.453-0.053-0.921-0.159-1.391c-0.034-0.15,0.004-0.308,0.102-0.427c0.098-0.119,0.24-0.173,0.399-0.183l0.158,0.009
		c3.488,0,6.325-2.838,6.325-6.326c0-1.038-0.246-2.031-0.732-2.951c-0.077-0.145-0.078-0.318-0.002-0.464s0.218-0.245,0.381-0.266
		c3.148-0.399,5.522-3.094,5.522-6.269c0-3.273-2.455-5.979-5.709-6.294c-0.171-0.017-0.322-0.12-0.399-0.273
		c-0.077-0.154-0.069-0.336,0.02-0.483c0.601-0.991,0.919-2.122,0.919-3.271c0-3.488-2.837-6.326-6.325-6.326
		c-0.154,0.004-0.381-0.059-0.478-0.178c-0.098-0.119-0.214-0.272-0.181-0.422c0.105-0.47,0.159-0.938,0.159-1.391
		C41.88,10.06,39.042,7.222,35.555,7.222z"/>
	<path class="st1" d="M17.829,31.941c-1.792,0-3.251-1.458-3.251-3.25s1.458-3.251,3.251-3.251v1c-1.241,0-2.251,1.01-2.251,2.251
		c0,1.241,1.01,2.25,2.251,2.25V31.941z"/>
	<path class="st1" d="M29.229,33.052h-1c0-1.241-1.01-2.251-2.251-2.251c-1.241,0-2.25,1.01-2.25,2.251h-1
		c0-1.792,1.458-3.251,3.25-3.251S29.229,31.259,29.229,33.052z"/>
	<path class="st1" d="M24.655,46.878c-1.792,0-3.251-1.458-3.251-3.251s1.458-3.251,3.251-3.251v1c-1.241,0-2.251,1.01-2.251,2.251
		s1.01,2.251,2.251,2.251V46.878z"/>
	<path class="st4" d="M60.917,32.187c0-3.545-2.703-6.458-6.161-6.792c0.625-1.031,0.992-2.236,0.992-3.53
		c0-3.77-3.056-6.826-6.826-6.826c-0.058,0-0.113,0.007-0.171,0.009c0.109-0.483,0.171-0.984,0.171-1.5
		c0-3.77-3.056-6.826-6.826-6.826h-6.542c3.77,0,6.826,3.056,6.826,6.826c0,0.516-0.062,1.017-0.171,1.5
		c0.057-0.001,0.113-0.009,0.171-0.009c3.77,0,6.826,3.056,6.826,6.826c0,1.294-0.367,2.499-0.992,3.53
		c3.458,0.334,6.161,3.247,6.161,6.792c0,3.476-2.6,6.338-5.96,6.765c0.503,0.951,0.79,2.033,0.79,3.184
		c0,3.77-3.056,6.826-6.826,6.826c-0.058,0-0.113-0.007-0.171-0.009c0.109,0.483,0.171,0.984,0.171,1.5
		c0,3.77-3.056,6.826-6.826,6.826h6.542c3.77,0,6.826-3.056,6.826-6.826c0-0.516-0.062-1.017-0.171-1.5
		c0.057,0.001,0.113,0.009,0.171,0.009c3.77,0,6.826-3.056,6.826-6.826c0-1.151-0.288-2.233-0.79-3.184
		C58.317,38.525,60.917,35.662,60.917,32.187z"/>
	<path class="st1" d="M42.096,57.778h-6.542c-0.276,0-0.5-0.224-0.5-0.5s0.224-0.5,0.5-0.5c3.488,0,6.326-2.837,6.326-6.325
		c0-0.453-0.053-0.921-0.159-1.391c-0.034-0.15,0.004-0.308,0.102-0.427c0.098-0.119,0.24-0.173,0.399-0.183l0.158,0.009
		c3.488,0,6.326-2.838,6.326-6.326c0-1.038-0.247-2.03-0.732-2.951c-0.077-0.145-0.078-0.318-0.002-0.464s0.218-0.245,0.381-0.266
		c3.148-0.399,5.522-3.094,5.522-6.269c0-3.273-2.455-5.979-5.709-6.294c-0.171-0.017-0.322-0.12-0.399-0.273
		c-0.077-0.154-0.069-0.336,0.02-0.483c0.602-0.992,0.919-2.123,0.919-3.271c0-3.488-2.838-6.326-6.326-6.326
		c-0.154,0.004-0.381-0.059-0.478-0.178c-0.098-0.119-0.214-0.272-0.181-0.422c0.105-0.47,0.159-0.938,0.159-1.391
		c0-3.488-2.838-6.325-6.326-6.325c-0.276,0-0.5-0.224-0.5-0.5s0.224-0.5,0.5-0.5h6.542c4.04,0,7.326,3.286,7.326,7.325
		c0,0.331-0.024,0.667-0.072,1.004c3.841,0.223,6.897,3.418,6.897,7.313c0,1.085-0.245,2.158-0.713,3.139
		c3.401,0.672,5.882,3.641,5.882,7.183c0,3.449-2.419,6.409-5.729,7.145c0.368,0.887,0.56,1.844,0.56,2.804
		c0,3.896-3.057,7.091-6.897,7.313c0.048,0.337,0.072,0.673,0.072,1.004C49.422,54.492,46.136,57.778,42.096,57.778z M39.247,56.778
		h2.85c3.488,0,6.326-2.837,6.326-6.325c0-0.455-0.053-0.923-0.159-1.391c-0.034-0.15,0.003-0.308,0.101-0.427
		c0.098-0.119,0.245-0.173,0.399-0.183l0.158,0.009c3.488,0,6.326-2.838,6.326-6.326c0-1.039-0.247-2.031-0.732-2.95
		c-0.077-0.145-0.078-0.319-0.002-0.464s0.218-0.245,0.381-0.266c3.148-0.399,5.522-3.094,5.522-6.269
		c0-3.273-2.454-5.979-5.709-6.294c-0.171-0.017-0.322-0.12-0.398-0.273c-0.077-0.154-0.07-0.336,0.019-0.483
		c0.602-0.992,0.919-2.123,0.919-3.271c0-3.488-2.838-6.326-6.326-6.326c-0.156,0.004-0.381-0.059-0.479-0.178
		s-0.214-0.272-0.18-0.423c0.105-0.467,0.159-0.936,0.159-1.391c0-3.488-2.838-6.325-6.326-6.325h-2.85
		c2.172,1.272,3.634,3.631,3.634,6.325c0,0.33-0.024,0.666-0.072,1.004c3.841,0.223,6.898,3.418,6.898,7.313
		c0,1.086-0.245,2.158-0.713,3.139c3.401,0.672,5.882,3.641,5.882,7.183c0,3.449-2.419,6.409-5.729,7.145
		c0.368,0.887,0.56,1.845,0.56,2.804c0,3.896-3.057,7.091-6.898,7.313c0.048,0.338,0.072,0.674,0.072,1.004
		C42.88,53.146,41.418,55.505,39.247,56.778z"/>
	<rect x="38.43" y="7.183" class="st1" width="1" height="10"/>
	<path class="st1" d="M34.271,24.683h-1v-10.75c0-0.276,0.224-0.5,0.5-0.5h5.159v1h-4.659V24.683z"/>
	<circle class="st0" cx="49.396" cy="30.808" r="1.5"/>
	<circle class="st0" cx="33.772" cy="25.974" r="1.5"/>
	<circle class="st0" cx="35.272" cy="41.992" r="1.5"/>
	<circle class="st0" cx="45.563" cy="39.683" r="1.5"/>
	<path class="st1" d="M49.396,32.808c-1.103,0-2-0.897-2-2s0.897-2,2-2s2,0.897,2,2S50.499,32.808,49.396,32.808z M49.396,29.808
		c-0.551,0-1,0.449-1,1s0.449,1,1,1s1-0.449,1-1S49.947,29.808,49.396,29.808z"/>
	<path class="st1" d="M33.771,27.974c-1.103,0-2-0.897-2-2s0.897-2,2-2s2,0.897,2,2S34.875,27.974,33.771,27.974z M33.771,24.974
		c-0.551,0-1,0.449-1,1s0.449,1,1,1s1-0.449,1-1S34.323,24.974,33.771,24.974z"/>
	<path class="st1" d="M35.271,43.992c-1.103,0-2-0.897-2-2s0.897-2,2-2s2,0.897,2,2S36.375,43.992,35.271,43.992z M35.271,40.992
		c-0.551,0-1,0.449-1,1s0.449,1,1,1s1-0.449,1-1S35.823,40.992,35.271,40.992z"/>
	<path class="st1" d="M45.563,41.683c-1.103,0-2-0.897-2-2s0.897-2,2-2s2,0.897,2,2S46.666,41.683,45.563,41.683z M45.563,38.683
		c-0.551,0-1,0.449-1,1s0.449,1,1,1s1-0.449,1-1S46.114,38.683,45.563,38.683z"/>
	<path class="st1" d="M47.896,31.308h-4.541c-0.276,0-0.5-0.224-0.5-0.5v-9.75h-9.083v-1h9.583c0.276,0,0.5,0.224,0.5,0.5v9.75
		h4.041V31.308z"/>
	<path class="st1" d="M44.021,40.183H38.93c-0.276,0-0.5-0.224-0.5-0.5v-7.63h-9.649v-1H38.93c0.276,0,0.5,0.224,0.5,0.5v7.63h4.591
		V40.183z"/>
	<path class="st1" d="M35.771,40.492h-1v-4.375h-6.146v-1h6.646c0.276,0,0.5,0.224,0.5,0.5V40.492z"/>
	<rect x="45.063" y="31.183" class="st1" width="1" height="4.438"/>
	<rect x="38.43" y="20.974" class="st1" width="1" height="7.583"/>
	<path class="st1" d="M35.771,52.167h-1v-5.859c0-0.276,0.224-0.5,0.5-0.5h5v-6.125h1v6.625c0,0.276-0.224,0.5-0.5,0.5h-5V52.167z"
		/>
	<rect x="33.271" y="10.813" class="st1" width="1" height="3.12"/>
	<path class="st4" d="M28.729,13.547c0-3.77,3.056-6.826,6.826-6.826H34.5H21.904C25.673,6.722,28.729,9.778,28.729,13.547z"/>
	<path class="st1" d="M28.729,14.047c-0.276,0-0.5-0.224-0.5-0.5c0-3.488-2.837-6.325-6.325-6.325c-0.276,0-0.5-0.224-0.5-0.5
		s0.224-0.5,0.5-0.5h13.651c0.276,0,0.5,0.224,0.5,0.5s-0.224,0.5-0.5,0.5c-3.488,0-6.326,2.837-6.326,6.325
		C29.229,13.824,29.005,14.047,28.729,14.047z M25.596,7.222c1.416,0.83,2.529,2.12,3.133,3.665
		c0.604-1.544,1.718-2.835,3.134-3.665H25.596z"/>
	<path class="st4" d="M28.729,50.452c0,3.77-3.056,6.826-6.826,6.826H34.5h1.055C31.785,57.278,28.729,54.222,28.729,50.452z"/>
	<path class="st1" d="M35.555,57.778H21.904c-0.276,0-0.5-0.224-0.5-0.5s0.224-0.5,0.5-0.5c3.488,0,6.325-2.837,6.325-6.325
		c0-0.276,0.224-0.5,0.5-0.5s0.5,0.224,0.5,0.5c0,3.488,2.838,6.325,6.326,6.325c0.276,0,0.5,0.224,0.5,0.5
		S35.831,57.778,35.555,57.778z M25.596,56.778h6.267c-1.416-0.83-2.53-2.12-3.134-3.665C28.125,54.658,27.011,55.948,25.596,56.778
		z"/>
</g>
</svg>
