<?xml version="1.0" encoding="iso-8859-1"?>
<!-- Uploaded to: SVG Repo, www.svgrepo.com, Generator: SVG Repo Mixer Tools -->
<svg version="1.1" id="Layer_1" xmlns="http://www.w3.org/2000/svg" xmlns:xlink="http://www.w3.org/1999/xlink" 
	 viewBox="0 0 512 512" xml:space="preserve">
<path style="fill:#E04F5F;" d="M218.944,400.496h265.52c15.2,0,27.536-12.64,27.536-28.224V28.224C512,12.64,499.664,0,484.464,0
	H27.536C12.336,0,0,12.64,0,28.224v344.24c0,15.584,12.336,28.224,27.536,28.224H80.64L47.248,512l156.608-106.88
	C208.336,402.112,213.584,400.496,218.944,400.496z"/>
<g>
	<rect x="240" y="110.88" style="fill:#FFFFFF;" width="32" height="186.128"/>
	<path style="fill:#FFFFFF;" d="M408,318.576l-22.512-10.048c-0.576-0.256-61.584-26.4-122.544,2.896L256,314.752l-6.944-3.328
		c-61.408-29.536-121.936-3.152-122.544-2.896L104,318.576v-217.52l8.96-4.384c61.84-30.336,122.72-11.248,143.04-3.2
		c20.336-8.048,81.184-27.12,143.04,3.2l8.96,4.384L408,318.576L408,318.576z M186.144,265.408c21.152,0,45.232,3.52,69.84,14.032
		c47.872-20.448,93.728-14.384,120-7.6V121.424c-57.216-22.768-112.4,3.568-112.992,3.824L256,128.672l-6.992-3.408
		c-1.136-0.528-56.416-26.272-113.008-3.824v150.4C148.768,268.544,166.144,265.408,186.144,265.408z"/>
</g>
</svg>