<?xml version="1.0" encoding="utf-8"?><!-- Uploaded to: SVG Repo, www.svgrepo.com, Generator: SVG Repo Mixer Tools -->
<svg fill="#000000" width="800px" height="800px" viewBox="0 0 24 24" id="send-alt" xmlns="http://www.w3.org/2000/svg" class="icon multi-color"><title style="stroke-width: 2;">send alt</title><path id="secondary-fill" d="M20.35,6l-5.1,14.27a1,1,0,0,1-1.95,0l-2.51-6.52a1,1,0,0,0-.6-.6L5,11.21,19.27,6.12A2,2,0,0,1,20.35,6Z" style="fill: rgb(44, 169, 188); stroke-width: 2;"></path><path id="primary-stroke" d="M20.94,4.39,20.35,6l-5.1,14.27a1,1,0,0,1-1.95,0l-2.51-6.52a1,1,0,0,0-.6-.6L5,11.21,3.67,10.7a1,1,0,0,1,0-1.95L19.61,3.06A1,1,0,0,1,20.94,4.39Zm-10.32,9,3-3" style="fill: none; stroke: rgb(0, 0, 0); stroke-linecap: round; stroke-linejoin: round; stroke-width: 2;"></path></svg>